<svg xmlns="http://www.w3.org/2000/svg" width="36" height="34" fill="none"><path fill="#E1A356" stroke="#E1A356" stroke-width=".5" d="M16.448 24.819H4.218a1.931 1.931 0 0 1-1.93-1.931v-.644c0-.244.205-1.287 1.93-1.287 1.725 0 1.931 1.107 1.931 1.332a.644.644 0 0 0 1.288-.045V4.865h23.815a1.93 1.93 0 0 1 1.931 1.931v1.931h1.288v-1.93a3.218 3.218 0 0 0-3.219-3.22H7.372A3.218 3.218 0 0 0 1 4.223v18.666a3.219 3.219 0 0 0 3.218 3.218h12.23V24.82zM2.288 4.222a1.931 1.931 0 1 1 3.861 0V20.14a3.714 3.714 0 0 0-1.93-.47 3.714 3.714 0 0 0-1.932.47V4.222zm15.447 7.724V8.084a.644.644 0 0 0-.643-.644H9.368a.644.644 0 0 0-.644.644v3.862a.644.644 0 0 0 .644.643h7.724a.644.644 0 0 0 .643-.643zm-1.287-.644h-6.437V8.727h6.437v2.575zm-1.287 4.506H8.724V14.52h6.437v1.288zm0 3.218H8.724v-1.287h6.437v1.287zm-6.437 1.931h6.437v1.287H8.724v-1.287zm21.885-4.59.933.644.708-1.068-7.724-5.15a.644.644 0 0 0-.708 0l-7.724 5.15.708 1.068.933-.643V26.75a1.93 1.93 0 0 0 1.931 1.931h9.012a1.931 1.931 0 0 0 1.93-1.931V16.368zm-7.724 11.027v-3.862h2.574v3.862h-2.574zm5.793 0h-1.931v-4.506a.644.644 0 0 0-.644-.644h-3.862a.644.644 0 0 0-.644.644v4.506h-1.93a.644.644 0 0 1-.644-.644V15.511l5.15-3.437 5.148 3.438V26.75a.644.644 0 0 1-.643.644zm5.98-14.991-.83-.837-.831.837-.914-.914L33.37 10.2a.64.64 0 0 1 .705-.14.64.64 0 0 1 .21.14l1.286 1.288-.914.914zm0 14.534.913.914-1.287 1.287a.644.644 0 0 1-.914 0l-1.287-1.287.914-.914.83.836.83-.836zm-1.475-13.704h1.288v12.873h-1.288V13.233zm-14.16 17.379H29.32v1.287H19.023v-1.287zm-.83-.187-.837.83.836.831-.914.914-1.287-1.287a.646.646 0 0 1 0-.914l1.287-1.288.914.914zm14.16.374a.644.644 0 0 1 0 .914L31.066 33l-.914-.914.836-.83-.836-.83.914-.915 1.287 1.288z"/></svg>