<svg xmlns="http://www.w3.org/2000/svg" width="37" height="35" fill="none"><path stroke="#E1A356" stroke-width="2" d="M17.705 3.697 15.649 2l-2.424 1.82-9.099 7.188v16.636h23.047V11.886l-9.468-8.19z"/><path stroke="#E1A356" stroke-width="2" d="M18.952 20.771h4.18v4.18h-4.18v-4.18zm-10.56 0h4.18v4.18h-4.18v-4.18zm10.581-8.04h4.18v4.181h-4.18v-4.18zm-10.581 0h4.18v4.181h-4.18v-4.18z" clip-rule="evenodd"/><path stroke="#E1A356" stroke-width="2" d="M1 13.005 15.65 2l13.803 11.4m-1.151 8.19a3.865 3.865 0 0 1 .53-4.186 3.831 3.831 0 0 1 3.382-1.322c.118.016.172.156.091.241l-1.825 2.013a.206.206 0 0 0-.035.234c.012.025.03.047.051.066l2.628 2.392a.23.23 0 0 0 .327-.016l1.825-2.007c.075-.086.214-.043.235.064a3.857 3.857 0 0 1-.91 3.42 3.854 3.854 0 0 1-4.158 1.028l-7.815 9.672a2.184 2.184 0 1 1-3.222-2.938l8.896-8.661z"/></svg>