<svg xmlns="http://www.w3.org/2000/svg" width="32" height="32" fill="none"><path fill="#E1A356" d="M29.44 8.32H.64A.64.64 0 0 1 0 7.68V6.4a.64.64 0 0 1 .18-.448l1.868-1.92a.64.64 0 0 1 .46-.192h23.2a.64.64 0 0 1 .295.07l3.731 1.92a.64.64 0 0 1 .346.57v1.28a.64.64 0 0 1-.64.64zM1.28 7.04H28.8v-.25l-3.245-1.67H2.778L1.28 6.662v.378z"/><path fill="#E1A356" d="M8.91 5.12H5.12a.64.64 0 0 1-.64-.64V.64A.64.64 0 0 1 5.12 0H6.4a.64.64 0 0 1 .538.288l2.509 3.84a.64.64 0 0 1 0 .64.64.64 0 0 1-.538.352zM5.76 3.84h1.965l-1.67-2.56H5.76v2.56zm3.2 24.96H5.12a.64.64 0 0 1-.64-.64V7.68a.64.64 0 0 1 .64-.64h3.84a.64.64 0 0 1 .64.64v20.48a.64.64 0 0 1-.64.64zm-3.2-1.28h2.56V8.32H5.76v19.2zM31.36 32H16a.64.64 0 0 1-.64-.64v-8.32a.64.64 0 0 1 .64-.64h7.04v-3.2a.64.64 0 0 1 .64-.64h7.68a.64.64 0 0 1 .64.64v12.16a.64.64 0 0 1-.64.64zm-14.72-1.28h14.08V19.84h-6.4v3.2a.64.64 0 0 1-.64.64h-7.04v7.04z"/><path fill="#E1A356" d="M17.28 23.68a.64.64 0 0 1-.64-.64v-5.76a.64.64 0 0 1 1.28 0v5.76a.64.64 0 0 1-.64.64zm6.4 0a.64.64 0 0 1-.64-.64v-8.96a.64.64 0 0 1 1.28 0v8.96a.64.64 0 0 1-.64.64zm6.4-3.84a.64.64 0 0 1-.64-.64v-6.4a.64.64 0 0 1 1.28 0v6.4a.64.64 0 0 1-.64.64z"/><path fill="#E1A356" d="M23.68 21.12h-6.4a.64.64 0 1 1 0-1.28h6.4a.64.64 0 1 1 0 1.28zm6.4-3.84h-6.4a.64.64 0 1 1 0-1.28h6.4a.64.64 0 1 1 0 1.28z"/><path fill="#E1A356" d="M20.48 23.68a.64.64 0 0 1-.64-.64v-4.48a.64.64 0 0 1 1.28 0v4.48a.64.64 0 0 1-.64.64zm6.4-3.84a.64.64 0 0 1-.64-.64v-4.48a.64.64 0 0 1 1.28 0v4.48a.64.64 0 0 1-.64.64zM21.12 16h-8.96a.64.64 0 0 1-.64-.64V12.8a.64.64 0 0 1 .64-.64h8.96a.64.64 0 0 1 .64.64v2.56a.64.64 0 0 1-.64.64zm-8.32-1.28h7.68v-1.28H12.8v1.28z"/><path fill="#E1A356" d="M16.64 13.44a.64.64 0 0 1-.64-.64V7.68a.64.64 0 1 1 1.28 0v5.12a.64.64 0 0 1-.64.64zM10.88 32H3.2a.64.64 0 0 1-.64-.64v-3.2a.64.64 0 0 1 .64-.64h7.68a.64.64 0 0 1 .64.64v3.2a.64.64 0 0 1-.64.64zm-7.04-1.28h6.4V28.8h-6.4v1.92z"/><path fill="#E1A356" d="M5.12 28.16a.64.64 0 0 1-.454-1.094l3.84-3.84a.643.643 0 0 1 .909.908l-3.84 3.84a.641.641 0 0 1-.455.186z"/><path fill="#E1A356" d="M8.96 24.32a.64.64 0 0 1-.454-.186l-3.84-3.84a.643.643 0 0 1 .909-.908l3.84 3.84a.64.64 0 0 1-.455 1.094z"/><path fill="#E1A356" d="M5.12 20.48a.64.64 0 0 1-.454-1.094l3.84-3.84a.643.643 0 0 1 .909.908l-3.84 3.84a.641.641 0 0 1-.455.186zm0-7.68a.64.64 0 0 1-.454-1.094l3.84-3.84a.643.643 0 1 1 .909.908l-3.84 3.84a.641.641 0 0 1-.455.186z"/></svg>