<svg xmlns="http://www.w3.org/2000/svg" width="62" height="62" fill="none"><path fill="#E1A356" stroke="#E1A356" d="M31.118 1c2.694.008 5.375.38 7.969 1.106l-1.444 3.488a26.381 26.381 0 1 0 18.75 18.75l3.488-1.463a30 30 0 1 1-28.763-21.88z"/><path fill="#E1A356" stroke="#E1A356" d="M50.9 26.688A20.27 20.27 0 1 1 35.339 11.2l-1.163 2.925a17.326 17.326 0 1 0 13.82 13.725l2.906-1.162z"/><path fill="#E1A356" stroke="#E1A356" d="M31.12 38.669a7.65 7.65 0 0 0 7.5-6.9l3.056-1.275V31a10.669 10.669 0 1 1-10.557-10.67h.45l-1.255 3.17a7.631 7.631 0 0 0 .806 15.169z"/><path fill="#E1A356" stroke="#E1A356" d="M49.49 22.263a.938.938 0 0 1-.656.281h-6.843L31.922 32.613a1.89 1.89 0 0 1-2.681-2.663l10.256-10.2v-6.543a.938.938 0 0 1 .281-.657L50.26 2.07a.937.937 0 0 1 1.593.655v7.5h7.388a.939.939 0 0 1 .656 1.594L49.491 22.263z"/></svg>