<svg xmlns="http://www.w3.org/2000/svg" width="55" height="60" fill="none"><path fill="#E1A356" d="M54.057 14.7a2.993 2.993 0 0 0-1.644-2.384L28.416.317a3 3 0 0 0-2.685 0L1.733 12.316A3.005 3.005 0 0 0 .093 14.7c-.034.32-2.883 32.297 25.764 45.037a2.96 2.96 0 0 0 2.436 0C56.94 46.998 54.09 15.025 54.056 14.7zM27.075 53.688C6.77 43.873 5.81 22.927 5.975 16.906l21.1-10.55L48.159 16.9c.111 5.967-.983 27.052-21.084 36.788z"/><path fill="#E1A356" d="m24.074 31.757-6.878-6.879-4.242 4.242 11.12 11.12 17.12-17.12-4.242-4.24-12.878 12.877z"/></svg>