<svg xmlns="http://www.w3.org/2000/svg" width="60" height="60" fill="none"><path fill="#E1A356" d="M59.056 27.173C52.58 17.525 41.7 11.765 29.952 11.765c-11.748 0-22.629 5.76-29.104 15.406a4.946 4.946 0 0 0 0 5.538C7.092 42.012 17.435 47.682 28.7 48.076c.722.065 1.46.076 2.183.01 11.389-.296 21.87-5.987 28.172-15.377a4.938 4.938 0 0 0 .001-5.536zM31.716 43.72a17.451 17.451 0 0 1-3.738-.012C21.073 42.79 15.73 37 15.73 30c0-7.637 6.352-13.85 14.161-13.85 7.809 0 14.162 6.213 14.162 13.85 0 7.03-5.389 12.84-12.335 13.721zm-27.31-13.4a.67.67 0 0 1 0-.758c2.59-3.858 6.011-6.963 9.917-9.247-1.813 2.806-2.879 6.123-2.879 9.686 0 3.483 1.021 6.727 2.76 9.493-3.855-2.278-7.235-5.356-9.798-9.174zm51.094 0c-2.608 3.884-6.056 7.006-9.995 9.294 1.785-2.791 2.834-6.08 2.834-9.613 0-3.613-1.093-6.975-2.953-9.805 3.99 2.293 7.48 5.443 10.115 9.368a.668.668 0 0 1-.001.756z"/><path fill="#E1A356" d="M29.89 22.627c-4.122 0-7.475 3.307-7.475 7.373 0 4.066 3.353 7.373 7.475 7.373s7.475-3.307 7.475-7.373c0-4.066-3.353-7.373-7.475-7.373zm0 10.46c-1.76 0-3.19-1.385-3.19-3.087 0-1.702 1.43-3.088 3.19-3.088 1.758 0 3.19 1.386 3.19 3.088 0 1.702-1.432 3.088-3.19 3.088zm0-23.354c1.183 0 2.142-.96 2.142-2.143V2.143a2.143 2.143 0 0 0-4.285 0V7.59c0 1.183.96 2.143 2.143 2.143zm0 40.534c-1.184 0-2.143.96-2.143 2.143v5.447a2.143 2.143 0 0 0 4.285 0V52.41a2.143 2.143 0 0 0-2.142-2.143zM40.588 9.733a2.14 2.14 0 0 0 1.687-.82l4.277-5.447A2.145 2.145 0 0 0 46.19.457a2.145 2.145 0 0 0-3.01.362l-4.276 5.447a2.145 2.145 0 0 0 1.684 3.467zm-23.083-.82a2.14 2.14 0 0 0 3.01.363 2.144 2.144 0 0 0 .362-3.01L16.598.82a2.144 2.144 0 0 0-3.371 2.647l4.278 5.448zm0 42.173-4.278 5.448a2.144 2.144 0 0 0 3.371 2.647l4.279-5.447a2.144 2.144 0 0 0-3.372-2.648zm24.77 0a2.145 2.145 0 0 0-3.01-.362 2.145 2.145 0 0 0-.361 3.01l4.277 5.447a2.14 2.14 0 0 0 3.01.362 2.145 2.145 0 0 0 .361-3.01l-4.277-5.447z"/></svg>